<svg width="1310" height="1112" viewBox="0 0 1310 1112" fill="none" xmlns="http://www.w3.org/2000/svg">
<path d="M613.5 375.919C634.849 363.593 661.151 363.593 682.5 375.919L927.867 517.581C949.216 529.907 962.367 552.686 962.367 577.337V860.663C962.367 885.314 949.216 908.093 927.867 920.419L682.5 1062.08C661.151 1074.41 634.849 1074.41 613.5 1062.08L368.133 920.419C346.784 908.093 333.633 885.314 333.633 860.663V577.337C333.633 552.686 346.784 529.907 368.133 517.581L613.5 375.919Z" fill="#E9B07C"/>
<path d="M647.5 1030L670.5 1069.5L655 1072.5H637.5L624 1067.5L647.5 1030Z" fill="#9C724B"/>
<path fill-rule="evenodd" clip-rule="evenodd" d="M642.829 1058.31C639.632 1067.74 628.411 1070.69 619.785 1065.71L342.633 905.696C337.064 902.48 333.633 896.538 333.633 890.107V570.092C333.633 560.132 341.796 551.89 351.564 553.837C361.38 555.792 370.951 559.348 379.879 564.503L601.246 692.309C630.021 708.922 647.746 739.624 647.746 772.849V1028.46C647.746 1038.77 646.041 1048.83 642.829 1058.31Z" fill="#9C724B"/>
<path fill-rule="evenodd" clip-rule="evenodd" d="M652.46 1059.79C655.665 1069.22 666.89 1072.16 675.512 1067.17L952.076 907.116C957.637 903.898 961.061 897.961 961.061 891.536V571.466C961.061 561.519 952.918 553.282 943.158 555.204C933.243 557.157 923.573 560.742 914.561 565.958L693.936 693.637C665.208 710.262 647.518 740.938 647.518 774.13V1029.87C647.518 1040.2 649.232 1050.29 652.46 1059.79Z" fill="#D69F6D"/>
<path d="M648 466L649 698" stroke="#7D5D45" stroke-width="17"/>
<path d="M370.347 335L269 282C324.205 285.081 434.493 291.491 433.998 292.477C422.628 312.691 386.827 329.248 370.347 335Z" fill="#D3F5FF"/>
<path d="M764.347 144L663 91C718.205 94.0814 828.493 100.491 827.998 101.477C816.628 121.691 780.827 138.248 764.347 144Z" fill="#D3F5FF"/>
<path d="M1149.35 332L1048 279C1103.21 282.081 1213.49 288.491 1213 289.477C1201.63 309.691 1165.83 326.248 1149.35 332Z" fill="#D3F5FF"/>
<path d="M756.347 577L655 524C710.205 527.081 820.493 533.491 819.998 534.477C808.628 554.691 772.827 571.248 756.347 577Z" fill="#D3F5FF"/>
<path fill-rule="evenodd" clip-rule="evenodd" d="M855.169 319.587C852.393 340.682 839.976 359.524 821.259 370.33L684.084 449.528C662.736 461.854 636.433 461.854 615.084 449.528L477.91 370.33C459.192 359.524 446.776 340.682 444 319.587C446.776 298.493 459.192 279.651 477.91 268.844L615.084 189.647C636.433 177.321 662.736 177.321 684.084 189.647L821.259 268.844C839.976 279.651 852.393 298.493 855.169 319.587Z" fill="#F8F7F7"/>
<path fill-rule="evenodd" clip-rule="evenodd" d="M832.839 292.325C829.267 312.089 817.185 329.559 799.438 339.806L684.084 406.405C662.736 418.73 636.433 418.73 615.084 406.405L499.731 339.806C481.984 329.559 469.902 312.089 466.33 292.325C469.902 272.56 481.984 255.09 499.731 244.844L615.084 178.244C636.433 165.919 662.736 165.919 684.084 178.244L799.438 244.844C817.185 255.09 829.267 272.56 832.839 292.325Z" fill="white"/>
<path d="M139.887 785.991V807.969H49.896V877.764H122.958V899.742H49.896V993H22.869V785.991H139.887ZM199.556 971.022H272.024V993H172.529V785.991H199.556V971.022ZM445.662 785.991L378.243 914.889V993H351.216V914.889L283.5 785.991H313.497L364.581 890.832L415.665 785.991H445.662ZM691.752 846.579C691.752 863.805 685.812 878.16 673.932 889.644C662.25 900.93 644.331 906.573 620.175 906.573H580.377V993H553.35V785.991H620.175C643.539 785.991 661.26 791.634 673.338 802.92C685.614 814.206 691.752 828.759 691.752 846.579ZM620.175 884.298C635.223 884.298 646.311 881.031 653.439 874.497C660.567 867.963 664.131 858.657 664.131 846.579C664.131 821.037 649.479 808.266 620.175 808.266H580.377V884.298H620.175ZM847.708 946.965H757.42L740.788 993H712.276L787.12 787.179H818.305L892.852 993H864.34L847.708 946.965ZM839.986 924.987L802.564 820.443L765.142 924.987H839.986ZM915.373 889.347C915.373 869.151 919.927 851.034 929.035 834.996C938.143 818.76 950.518 806.088 966.16 796.98C982 787.872 999.523 783.318 1018.73 783.318C1041.3 783.318 1061 788.763 1077.83 799.653C1094.66 810.543 1106.94 825.987 1114.66 845.985H1082.29C1076.54 833.511 1068.23 823.908 1057.34 817.176C1046.65 810.444 1033.78 807.078 1018.73 807.078C1004.27 807.078 991.306 810.444 979.822 817.176C968.338 823.908 959.329 833.511 952.795 845.985C946.261 858.261 942.994 872.715 942.994 889.347C942.994 905.781 946.261 920.235 952.795 932.709C959.329 944.985 968.338 954.489 979.822 961.221C991.306 967.953 1004.27 971.319 1018.73 971.319C1033.78 971.319 1046.65 968.052 1057.34 961.518C1068.23 954.786 1076.54 945.183 1082.29 932.709H1114.66C1106.94 952.509 1094.66 967.854 1077.83 978.744C1061 989.436 1041.3 994.782 1018.73 994.782C999.523 994.782 982 990.327 966.16 981.417C950.518 972.309 938.143 959.736 929.035 943.698C919.927 927.66 915.373 909.543 915.373 889.347ZM1267.16 993L1181.92 898.554V993H1154.89V785.991H1181.92V881.922L1267.45 785.991H1301.61L1207.76 889.644L1302.5 993H1267.16Z" fill="white"/>
<path d="M18.42 1028.86H33.63C39.9567 1028.86 44.7233 1030.47 47.93 1033.67C51.18 1036.97 52.805 1042.67 52.805 1050.77C52.805 1061.26 50.01 1067.93 44.42 1070.79C41.6467 1072.26 37.985 1073 33.435 1073H18.42V1028.86ZM22.905 1032.31V1069.55H32.005C38.2017 1069.55 42.5133 1068.1 44.94 1065.2C47.3233 1062.25 48.515 1057.44 48.515 1050.77C48.515 1044.7 47.4967 1040.15 45.46 1037.12C43.3367 1033.91 39.415 1032.31 33.695 1032.31H22.905ZM88.8404 1032.11V1049.27H99.3704C102.36 1049.27 104.787 1048.99 106.65 1048.43C108.947 1047.74 110.529 1046.41 111.395 1044.46C111.872 1043.29 112.11 1042.02 112.11 1040.63C112.11 1037.81 111.309 1035.69 109.705 1034.26C108.535 1033.18 106.564 1032.5 103.79 1032.24C102.49 1032.16 101.277 1032.11 100.15 1032.11H88.8404ZM107.04 1052.07L117.31 1073H112.63L102.62 1052.65H88.8404V1073H84.4204V1028.86H100.41C106.13 1028.86 110.247 1029.8 112.76 1031.66C115.317 1033.52 116.595 1036.49 116.595 1040.56C116.595 1046.5 113.41 1050.34 107.04 1052.07ZM154.86 1034.91C152.866 1036.95 151.588 1040.02 151.025 1044.14C150.721 1045.92 150.57 1048.08 150.57 1050.64C150.57 1057.53 151.61 1062.51 153.69 1065.59C155.813 1068.67 159.345 1070.2 164.285 1070.2C169.268 1070.2 172.8 1068.69 174.88 1065.65C177.003 1062.58 178.065 1057.59 178.065 1050.7C178.065 1045.72 177.48 1041.8 176.31 1038.94C174.88 1035.65 172.713 1033.48 169.81 1032.44C168.293 1031.88 166.451 1031.59 164.285 1031.59C160.125 1031.59 156.983 1032.7 154.86 1034.91ZM177.805 1033.22C181.098 1036.86 182.745 1042.67 182.745 1050.64C182.745 1058.57 181.206 1064.4 178.13 1068.12C175.053 1071.85 170.438 1073.72 164.285 1073.72C158.348 1073.72 153.841 1071.96 150.765 1068.45C147.558 1064.85 145.955 1058.94 145.955 1050.7C145.955 1042.69 147.58 1036.86 150.83 1033.22C153.906 1029.75 158.391 1028.02 164.285 1028.02C170.135 1028.02 174.641 1029.75 177.805 1033.22ZM214.39 1073V1028.86H219.33L246.565 1066.3V1054.47V1028.86H250.465V1073H246.435L218.42 1034.13V1046.61V1073H214.39ZM312.695 1073H283.12V1028.86H312.37V1032.24H287.605V1047.71H309.12V1051.22H287.605V1069.62H312.695V1073ZM378.622 1028.86H393.832C400.158 1028.86 404.925 1030.47 408.132 1033.67C411.382 1036.97 413.007 1042.67 413.007 1050.77C413.007 1061.26 410.212 1067.93 404.622 1070.79C401.848 1072.26 398.187 1073 393.637 1073H378.622V1028.86ZM383.107 1032.31V1069.55H392.207C398.403 1069.55 402.715 1068.1 405.142 1065.2C407.525 1062.25 408.717 1057.44 408.717 1050.77C408.717 1044.7 407.698 1040.15 405.662 1037.12C403.538 1033.91 399.617 1032.31 393.897 1032.31H383.107ZM474.197 1073H444.622V1028.86H473.872V1032.24H449.107V1047.71H470.622V1051.22H449.107V1069.62H474.197V1073ZM529.79 1073H502.815V1028.86H507.3V1069.62H529.79V1073ZM562.137 1073H557.782V1028.86H562.137V1073ZM624.591 1073H595.016V1028.86H624.266V1032.24H599.501V1047.71H621.016V1051.22H599.501V1069.62H624.591V1073ZM664.258 1073L649.178 1028.86H653.858L662.698 1055.06L664.388 1060.13C664.995 1062.12 665.688 1064.25 666.468 1066.5C666.815 1065.42 667.508 1063.36 668.548 1060.32C669.588 1057.29 670.195 1055.54 670.368 1055.06L679.078 1028.86H683.498L668.418 1073H664.258ZM741.611 1073H712.036V1028.86H741.286V1032.24H716.521V1047.71H738.036V1051.22H716.521V1069.62H741.611V1073ZM774.649 1032.11V1049.27H785.179C788.169 1049.27 790.595 1048.99 792.459 1048.43C794.755 1047.74 796.337 1046.41 797.204 1044.46C797.68 1043.29 797.919 1042.02 797.919 1040.63C797.919 1037.81 797.117 1035.69 795.514 1034.26C794.344 1033.18 792.372 1032.5 789.599 1032.24C788.299 1032.16 787.085 1032.11 785.959 1032.11H774.649ZM792.849 1052.07L803.119 1073H798.439L788.429 1052.65H774.649V1073H770.229V1028.86H786.219C791.939 1028.86 796.055 1029.8 798.569 1031.66C801.125 1033.52 802.404 1036.49 802.404 1040.56C802.404 1046.5 799.219 1050.34 792.849 1052.07ZM843.468 1056.42L827.998 1028.86H832.743L845.678 1052.46L858.548 1028.86H863.293L847.823 1056.42V1073H843.468V1056.42ZM958.131 1035.88L954.946 1038.29C953.776 1036.25 952.172 1034.67 950.136 1033.54C948.142 1032.42 945.911 1031.85 943.441 1031.85C940.147 1031.85 937.547 1032.46 935.641 1033.67C933.734 1034.89 932.781 1036.66 932.781 1039C932.781 1040.78 933.496 1042.28 934.926 1043.49C936.182 1044.53 937.872 1045.4 939.996 1046.09C940.299 1046.18 941.187 1046.48 942.661 1047C944.177 1047.48 945.196 1047.8 945.716 1047.97C947.059 1048.54 948.164 1048.99 949.031 1049.34C951.154 1050.21 952.952 1051.12 954.426 1052.07C955.942 1053.07 957.091 1054.3 957.871 1055.77C958.694 1057.33 959.106 1059.13 959.106 1061.17C959.106 1065.07 957.632 1068.15 954.686 1070.4C951.739 1072.61 947.752 1073.72 942.726 1073.72C939.736 1073.72 936.919 1073.17 934.276 1072.09C931.112 1070.79 928.816 1068.93 927.386 1066.5C926.476 1065.07 925.869 1063.49 925.566 1061.75L929.271 1060.13C931.047 1066.67 935.641 1069.94 943.051 1069.94C945.391 1069.94 947.514 1069.55 949.421 1068.77C951.587 1067.95 953.061 1066.61 953.841 1064.74C954.274 1063.83 954.491 1062.69 954.491 1061.3C954.491 1060.04 954.166 1058.68 953.516 1057.2C953.256 1056.73 952.757 1056.23 952.021 1055.71C951.197 1055.19 950.634 1054.8 950.331 1054.54C949.854 1054.24 948.142 1053.5 945.196 1052.33C944.632 1052.16 943.527 1051.77 941.881 1051.16C941.577 1051.12 941.361 1051.05 941.231 1050.96C939.411 1050.31 938.046 1049.82 937.136 1049.47C936.269 1049.12 935.186 1048.62 933.886 1047.97C932.629 1047.32 931.676 1046.72 931.026 1046.15C930.419 1045.55 929.834 1044.79 929.271 1043.88C928.751 1042.97 928.404 1041.95 928.231 1040.82C928.187 1040.52 928.166 1040.02 928.166 1039.33C928.166 1035.65 929.682 1032.85 932.716 1030.94C935.532 1029.17 938.912 1028.28 942.856 1028.28C949.876 1028.28 954.967 1030.81 958.131 1035.88ZM1018.61 1073H989.035V1028.86H1018.29V1032.24H993.52V1047.71H1015.04V1051.22H993.52V1069.62H1018.61V1073ZM1051.65 1032.11V1049.27H1062.18C1065.17 1049.27 1067.59 1048.99 1069.46 1048.43C1071.75 1047.74 1073.34 1046.41 1074.2 1044.46C1074.68 1043.29 1074.92 1042.02 1074.92 1040.63C1074.92 1037.81 1074.12 1035.69 1072.51 1034.26C1071.34 1033.18 1069.37 1032.5 1066.6 1032.24C1065.3 1032.16 1064.08 1032.11 1062.96 1032.11H1051.65ZM1069.85 1052.07L1080.12 1073H1075.44L1065.43 1052.65H1051.65V1073H1047.23V1028.86H1063.22C1068.94 1028.86 1073.05 1029.8 1075.57 1031.66C1078.12 1033.52 1079.4 1036.49 1079.4 1040.56C1079.4 1046.5 1076.22 1050.34 1069.85 1052.07ZM1120.79 1073L1105.71 1028.86H1110.39L1119.23 1055.06L1120.92 1060.13C1121.52 1062.12 1122.22 1064.25 1123 1066.5C1123.34 1065.42 1124.04 1063.36 1125.08 1060.32C1126.12 1057.29 1126.72 1055.54 1126.9 1055.06L1135.61 1028.86H1140.03L1124.95 1073H1120.79ZM1173.44 1073H1169.08V1028.86H1173.44V1073ZM1240.18 1039.78L1236.09 1040.69C1235.39 1037.83 1234.01 1035.6 1231.93 1034C1229.89 1032.4 1227.25 1031.59 1224 1031.59C1219.06 1031.59 1215.48 1033.2 1213.27 1036.4C1211.06 1039.57 1209.96 1044.36 1209.96 1050.77C1209.96 1056.01 1210.56 1060.13 1211.78 1063.12C1213.08 1066.28 1215.29 1068.38 1218.41 1069.42C1220.05 1069.94 1221.94 1070.2 1224.06 1070.2C1230.3 1070.2 1234.46 1067.34 1236.54 1061.62L1240.31 1062.79C1239.14 1066.39 1237.13 1069.12 1234.27 1070.98C1231.41 1072.81 1227.92 1073.72 1223.8 1073.72C1217.52 1073.72 1212.86 1071.87 1209.83 1068.19C1206.84 1064.51 1205.34 1058.7 1205.34 1050.77C1205.34 1035.6 1211.6 1028.02 1224.13 1028.02C1228.2 1028.02 1231.62 1029.04 1234.4 1031.07C1237.21 1033.07 1239.14 1035.97 1240.18 1039.78ZM1300.31 1073H1270.73V1028.86H1299.98V1032.24H1275.22V1047.71H1296.73V1051.22H1275.22V1069.62H1300.31V1073Z" fill="white"/>
<path fill-rule="evenodd" clip-rule="evenodd" d="M263.5 408C363.188 408 444 365.915 444 314C444 262.085 363.188 220 263.5 220C163.812 220 83 262.085 83 314C83 365.915 163.812 408 263.5 408ZM261.5 362C345.171 362 413 331.107 413 293C413 254.893 345.171 224 261.5 224C177.829 224 110 254.893 110 293C110 331.107 177.829 362 261.5 362Z" fill="#D6D6D6"/>
<path fill-rule="evenodd" clip-rule="evenodd" d="M415.561 303C416.51 299.404 417 295.731 417 292C417 247.817 348.275 212 263.5 212C178.725 212 110 247.817 110 292C110 295.731 110.49 299.404 111.439 303C121.725 264.022 185.885 234 263.5 234C341.115 234 405.275 264.022 415.561 303Z" fill="#858585"/>
<path fill-rule="evenodd" clip-rule="evenodd" d="M263.5 376C363.187 376 444 333.915 444 282C444 230.085 363.187 188 263.5 188C163.813 188 83 230.085 83 282C83 333.915 163.813 376 263.5 376ZM263.5 350C342.201 350 406 319.555 406 282C406 244.445 342.201 214 263.5 214C184.799 214 121 244.445 121 282C121 319.555 184.799 350 263.5 350Z" fill="white"/>
<path fill-rule="evenodd" clip-rule="evenodd" d="M647.5 220C747.187 220 828 177.915 828 126C828 74.0852 747.187 32 647.5 32C547.813 32 467 74.0852 467 126C467 177.915 547.813 220 647.5 220ZM645.5 174C729.171 174 797 143.108 797 105C797 66.8924 729.171 36 645.5 36C561.829 36 494 66.8924 494 105C494 143.108 561.829 174 645.5 174Z" fill="#D6D6D6"/>
<path fill-rule="evenodd" clip-rule="evenodd" d="M799.561 115C800.51 111.404 801 107.732 801 104C801 59.8172 732.276 24 647.5 24C562.724 24 494 59.8172 494 104C494 107.732 494.49 111.404 495.439 115C505.724 76.0222 569.885 46 647.5 46C725.115 46 789.276 76.0222 799.561 115Z" fill="#858585"/>
<path fill-rule="evenodd" clip-rule="evenodd" d="M647.5 188C747.187 188 828 145.915 828 94C828 42.0852 747.187 0 647.5 0C547.813 0 467 42.0852 467 94C467 145.915 547.813 188 647.5 188ZM647.5 162C726.201 162 790 131.555 790 94C790 56.4446 726.201 26 647.5 26C568.799 26 505 56.4446 505 94C505 131.555 568.799 162 647.5 162Z" fill="white"/>
<path fill-rule="evenodd" clip-rule="evenodd" d="M647.5 654C747.187 654 828 611.915 828 560C828 508.085 747.187 466 647.5 466C547.813 466 467 508.085 467 560C467 611.915 547.813 654 647.5 654ZM645.5 608C729.171 608 797 577.108 797 539C797 500.892 729.171 470 645.5 470C561.829 470 494 500.892 494 539C494 577.108 561.829 608 645.5 608Z" fill="#D6D6D6"/>
<path fill-rule="evenodd" clip-rule="evenodd" d="M799.561 549C800.51 545.404 801 541.732 801 538C801 493.817 732.276 458 647.5 458C562.724 458 494 493.817 494 538C494 541.732 494.49 545.404 495.439 549C505.724 510.022 569.885 480 647.5 480C725.115 480 789.276 510.022 799.561 549Z" fill="#858585"/>
<path fill-rule="evenodd" clip-rule="evenodd" d="M647.5 622C747.187 622 828 579.915 828 528C828 476.085 747.187 434 647.5 434C547.813 434 467 476.085 467 528C467 579.915 547.813 622 647.5 622ZM647.5 596C726.201 596 790 565.555 790 528C790 490.445 726.201 460 647.5 460C568.799 460 505 490.445 505 528C505 565.555 568.799 596 647.5 596Z" fill="white"/>
<path fill-rule="evenodd" clip-rule="evenodd" d="M1035.5 408C1135.19 408 1216 365.915 1216 314C1216 262.085 1135.19 220 1035.5 220C935.813 220 855 262.085 855 314C855 365.915 935.813 408 1035.5 408ZM1033.5 362C1117.17 362 1185 331.108 1185 293C1185 254.892 1117.17 224 1033.5 224C949.829 224 882 254.892 882 293C882 331.108 949.829 362 1033.5 362Z" fill="#D6D6D6"/>
<path fill-rule="evenodd" clip-rule="evenodd" d="M1187.56 303C1188.51 299.404 1189 295.732 1189 292C1189 247.817 1120.28 212 1035.5 212C950.724 212 882 247.817 882 292C882 295.732 882.49 299.404 883.439 303C893.724 264.022 957.885 234 1035.5 234C1113.12 234 1177.28 264.022 1187.56 303Z" fill="#858585"/>
<path fill-rule="evenodd" clip-rule="evenodd" d="M1035.5 376C1135.19 376 1216 333.915 1216 282C1216 230.085 1135.19 188 1035.5 188C935.813 188 855 230.085 855 282C855 333.915 935.813 376 1035.5 376ZM1035.5 350C1114.2 350 1178 319.555 1178 282C1178 244.445 1114.2 214 1035.5 214C956.799 214 893 244.445 893 282C893 319.555 956.799 350 1035.5 350Z" fill="white"/>
<circle cx="767.5" cy="367.5" r="11.5" fill="#FF0000"/>
<circle cx="711.5" cy="396.5" r="11.5" fill="#00FF29"/>
<circle cx="509.5" cy="355.5" r="11.5" fill="#FFF500"/>
<path d="M844.5 347.5L932 533.5" stroke="#7D5D45" stroke-width="17"/>
<path d="M455 348L366 534" stroke="#7D5D45" stroke-width="17"/>
<path d="M183.023 235L277 284C225.81 281.151 123.543 275.226 124.002 274.314C134.545 255.626 167.743 240.318 183.023 235Z" fill="#D3F5FF"/>
<path d="M577.023 44L671 93C619.81 90.1512 517.543 84.2256 518.002 83.314C528.545 64.6256 561.743 49.3178 577.023 44Z" fill="#D3F5FF"/>
<path d="M962.023 232L1056 281C1004.81 278.151 902.543 272.226 903.002 271.314C913.545 252.626 946.743 237.318 962.023 232Z" fill="#D3F5FF"/>
<path d="M569.023 477L663 526C611.81 523.151 509.543 517.226 510.002 516.314C520.545 497.626 553.743 482.318 569.023 477Z" fill="#D3F5FF"/>
</svg>
